HIERARCHY
ROOT SpineBase
{
  OFFSET 0.000000 0.000000 0.000000
  CHANNELS 6 Xposition Yposition Zposition Zrotation Xrotation Yrotation
  JOINT SpineMid
  {
    OFFSET 0.000000 28.666523 -0.000000
    CHANNELS 3 Zrotation Xrotation Yrotation
    JOINT SpineShoulder
    {
      OFFSET -0.066402 21.243117 -0.637867
      CHANNELS 3 Zrotation Xrotation Yrotation
      JOINT Neck
      {
        OFFSET -0.039926 7.031848 -0.490824
        CHANNELS 3 Zrotation Xrotation Yrotation
        JOINT Head
        {
          OFFSET -1.735601 12.002320 -0.190977
          CHANNELS 3 Zrotation Xrotation Yrotation
          End Site
          {
            OFFSET 0 0 0
          }
        }
      }
      JOINT ShoulderLeft
      {
        OFFSET -16.456455 -2.071938 5.958094
        CHANNELS 3 Zrotation Xrotation Yrotation
        JOINT ElbowLeft
        {
          OFFSET -4.325090 -29.003928 2.321700
          CHANNELS 3 Zrotation Xrotation Yrotation
          JOINT WristLeft
          {
            OFFSET -0.067672 -18.719464 -9.117683
            CHANNELS 3 Zrotation Xrotation Yrotation
            JOINT HandLeft
            {
              OFFSET 2.082063 -4.455280 -1.582777
              CHANNELS 3 Zrotation Xrotation Yrotation
              JOINT HandTipLeft
              {
                OFFSET 1.087164 -5.248806 -0.632440
                CHANNELS 3 Zrotation Xrotation Yrotation
                End Site
                {
                  OFFSET 0 0 0
                }
              }
              JOINT ThumbLeft
              {
                OFFSET 1.795489 2.812664 -2.507627
                CHANNELS 3 Zrotation Xrotation Yrotation
                End Site
                {
                  OFFSET 0 0 0
                }
              }
            }
          }
        }
      }
      JOINT ShoulderRight
      {
        OFFSET 15.170532 -1.667699 -5.497041
        CHANNELS 3 Zrotation Xrotation Yrotation
        JOINT ElbowRight
        {
          OFFSET 8.532404 -19.483526 -3.413512
          CHANNELS 3 Zrotation Xrotation Yrotation
          JOINT WristRight
          {
            OFFSET -9.626954 -4.539770 -19.034040
            CHANNELS 3 Zrotation Xrotation Yrotation
            JOINT HandRight
            {
              OFFSET -5.249437 -1.196875 -4.580108
              CHANNELS 3 Zrotation Xrotation Yrotation
              JOINT HandTipRight
              {
                OFFSET -2.131093 -1.542986 -3.930484
                CHANNELS 3 Zrotation Xrotation Yrotation
                End Site
                {
                  OFFSET 0 0 0
                }
              }
              JOINT ThumbRight
              {
                OFFSET 2.732199 0.143465 -2.939234
                CHANNELS 3 Zrotation Xrotation Yrotation
                End Site
                {
                  OFFSET 0 0 0
                }
              }
            }
          }
        }
      }
    }
  }
  JOINT HipLeft
  {
    OFFSET -5.909374 0.221409 -1.537504
    CHANNELS 3 Zrotation Xrotation Yrotation
    JOINT KneeLeft
    {
      OFFSET -5.359277 -35.158219 4.628746
      CHANNELS 3 Zrotation Xrotation Yrotation
      JOINT AnkleLeft
      {
        OFFSET 0.881781 -31.571608 6.296484
        CHANNELS 3 Zrotation Xrotation Yrotation
        JOINT FootLeft
        {
          OFFSET -3.109133 -3.688509 -12.313469
          CHANNELS 3 Zrotation Xrotation Yrotation
          End Site
          {
            OFFSET 0 0 0
          }
        }
      }
    }
  }
  JOINT HipRight
  {
    OFFSET 5.535231 1.048753 -5.090445
    CHANNELS 3 Zrotation Xrotation Yrotation
    JOINT KneeRight
    {
      OFFSET 8.700076 -33.342747 5.767396
      CHANNELS 3 Zrotation Xrotation Yrotation
      JOINT AnkleRight
      {
        OFFSET 2.511746 -32.121104 7.448675
        CHANNELS 3 Zrotation Xrotation Yrotation
        JOINT FootRight
        {
          OFFSET -3.562791 -3.278268 -13.053690
          CHANNELS 3 Zrotation Xrotation Yrotation
          End Site
          {
            OFFSET 0 0 0
          }
        }
      }
    }
  }
}
MOTION
Frames: 5
Frame Time: 0.033333
20.092797 76.474898 353.872981 5.426273 -2.478453 18.641341 0.838549 -0.345617 -18.355938 0.052929 -0.583981 0.276521 30.706803 28.913789 -6.451139 0.000000 0.000000 0.000000 -103.870227 -27.329368 -28.304429 -34.478936 -66.383216 -1.754884 65.664495 52.153708 -10.168494 14.639626 31.446533 12.160920 0.000000 0.000000 0.000000 0.000000 0.000000 0.000000 101.983145 27.432792 -35.271430 -140.530433 -0.067793 47.897330 -4.667519 -30.226937 -35.019274 -15.207874 19.216797 19.447552 0.000000 0.000000 0.000000 0.000000 0.000000 0.000000 -10.900494 1.716626 -18.105664 3.522985 4.914344 -0.351597 16.694487 -16.525599 -68.548045 0.000000 0.000000 0.000000 0.031142 5.408051 -17.399356 -1.036238 -4.349762 -0.741743 4.704497 -24.148667 -56.430279 0.000000 0.000000 0.000000
20.103020 76.401913 353.846948 3.363374 -3.776647 30.963414 0.468735 -0.523680 -30.757857 -0.268178 -0.457668 0.152710 38.404773 33.379281 -9.419724 0.000000 0.000000 0.000000 -98.529396 -27.870362 -26.130199 -27.498550 -64.275565 5.132758 66.887560 51.835303 -11.769170 7.441813 16.388908 -8.642390 0.000000 0.000000 0.000000 0.000000 0.000000 0.000000 105.029191 26.379162 -36.180132 -140.429253 -2.006483 49.409492 -5.659419 -30.790629 -32.938447 -16.772044 19.247128 22.579225 0.000000 0.000000 0.000000 0.000000 0.000000 0.000000 -8.759187 4.645308 -30.371109 4.607366 4.890190 -0.240146 14.916944 -22.191667 -70.656402 0.000000 0.000000 0.000000 4.473007 4.723073 -29.784227 -2.065972 -4.153663 -0.911678 7.410689 -17.163249 -70.341367 0.000000 0.000000 0.000000
20.079757 76.408334 353.820010 3.191745 -3.292171 39.775546 0.197757 -0.641110 -39.587506 -0.406084 -0.395914 0.133382 41.668321 32.968797 -10.070386 0.000000 0.000000 0.000000 -96.912757 -27.160574 -25.412151 -31.640584 -65.411311 1.819333 60.716383 52.776192 -3.806901 9.938613 12.613248 -16.119097 0.000000 0.000000 0.000000 0.000000 0.000000 0.000000 104.931787 25.821954 -35.257025 -140.217606 -3.736719 50.866304 -5.838933 -29.009456 -30.208346 -16.608312 15.917524 23.466097 0.000000 0.000000 0.000000 0.000000 0.000000 0.000000 -7.997506 5.683118 -39.245877 4.674392 4.640566 -0.187835 13.575740 -25.027403 -67.699221 0.000000 0.000000 0.000000 4.992463 3.138771 -38.568432 -2.534027 -3.782848 -0.950691 5.280686 -23.719680 -74.684470 0.000000 0.000000 0.000000
20.016185 76.506029 353.778860 4.491908 -1.563882 36.933824 0.000848 -0.491115 -36.723539 -0.588652 -0.280805 0.162807 41.380425 28.564063 -8.215984 0.000000 0.000000 0.000000 -97.597551 -25.623481 -25.934046 -40.909326 -67.513664 -3.666886 81.626082 53.638035 -6.286658 2.732197 16.330819 -15.342286 0.000000 0.000000 0.000000 0.000000 0.000000 0.000000 102.900687 25.668574 -32.847281 -140.054503 -5.071700 52.187993 -5.389953 -25.085276 -27.204486 -15.778664 9.342287 23.265143 0.000000 0.000000 0.000000 0.000000 0.000000 0.000000 -9.344402 4.444276 -36.489464 3.779268 4.118429 -0.210629 12.892361 -25.074049 -59.805482 0.000000 0.000000 0.000000 2.215280 2.681487 -35.768998 -2.169582 -3.593885 -0.793016 3.068728 -28.995802 -70.991630 0.000000 0.000000 0.000000
19.902751 76.698027 353.725563 6.658128 0.899093 31.716908 -0.259229 -0.335881 -31.545457 -0.687525 -0.221045 0.223889 39.057861 20.347050 -4.797180 0.000000 0.000000 0.000000 -99.633867 -23.534956 -26.971163 -55.696466 -70.092463 -6.954357 117.971267 39.444138 -19.518916 2.357582 37.578688 10.356815 0.000000 0.000000 0.000000 0.000000 0.000000 0.000000 99.630622 25.836591 -29.826867 -139.939004 -5.774197 53.151837 -4.843712 -19.860470 -24.105118 -14.391886 2.042720 20.710418 0.000000 0.000000 0.000000 0.000000 0.000000 0.000000 -11.163116 2.194173 -31.462199 2.180094 3.433844 -0.301181 12.375519 -22.424954 -47.764028 0.000000 0.000000 0.000000 -2.030744 1.910040 -30.736642 -1.415570 -3.185713 -0.543288 1.932467 -38.747587 -51.463647 0.000000 0.000000 0.000000
